<svg width="78" height="48" viewBox="0 0 78 48" fill="none" xmlns="http://www.w3.org/2000/svg">
<g filter="url(#filter0_d_5_22)">
<rect x="4" width="70" height="40" fill="white" shape-rendering="crispEdges"/>
<rect x="4" width="70" height="40" fill="black" fill-opacity="0.2" shape-rendering="crispEdges"/>
<path d="M40.6935 11.0646L41.4561 10.3196L26.9987 14.9989L25.8781 18.3346L40.6935 11.0646Z" fill="#F6F3E3"/>
<path d="M21.7222 16.2497L12.5038 16.5903C12.4187 16.4764 12.3273 16.3662 12.2284 16.2635C10.9412 14.925 8.68728 14.7434 6.87041 15.829C5.86117 16.4313 5.11239 17.3391 4.75928 18.3847C4.3949 19.4628 4.49507 20.5584 5.03976 21.4675C5.17374 21.6941 5.33402 21.9032 5.51558 22.091C6.50102 23.114 8.05119 23.4609 9.53874 23.079C9.58132 23.1604 9.63266 23.2405 9.70027 23.3106C10.0809 23.7051 10.7095 23.7176 11.1052 23.3382C11.4145 23.0402 11.4858 22.5906 11.3218 22.22C12.1044 21.6327 12.6867 20.8502 12.9847 19.9674C13.1888 19.3664 13.2414 18.7603 13.1587 18.1831L20.599 18.4197L21.7222 16.2497ZM11.8552 19.5905C11.5935 20.3681 11.0276 21.048 10.2612 21.505C8.91517 22.3102 7.27986 22.2087 6.37205 21.2684C6.2531 21.1432 6.14792 21.0067 6.06026 20.8614C5.69714 20.2554 5.63579 19.5116 5.88622 18.7691C6.14792 17.9915 6.71389 17.3116 7.47895 16.8533C8.82502 16.0481 10.4616 16.1483 11.3681 17.0912C11.4871 17.2152 11.5923 17.3529 11.6799 17.4994C12.0456 18.1042 12.1057 18.848 11.8552 19.5905Z" fill="#F6F3E3"/>
<path d="M23.5741 39.8504C23.6367 39.5937 22.5811 36.7237 23.6029 35.6206C24.0361 35.2825 24.4193 34.8668 24.7298 34.3897C25.8843 32.6142 25.7892 30.3553 24.5019 29.018C24.4669 28.9817 24.4268 28.9504 24.3905 28.9141L25.0191 18.4636L31.216 0.000610352L30.2644 1.22396L21.4993 18.1856L22.9618 19.7746L22.4058 27.9799C21.8962 27.9198 21.3628 27.9649 20.8281 28.1214C19.7701 28.4345 18.8347 29.147 18.1936 30.1324C17.0391 31.9079 17.1343 34.1668 18.4215 35.5054C18.6031 35.6907 18.8072 35.8597 19.0263 36.0012C19.5209 36.3243 20.0781 36.5046 20.6628 36.5509C22.1016 37.1945 22.1942 39.188 22.367 39.5987C22.5423 40.0144 23.5065 40.1208 23.5741 39.8504ZM23.0582 18.2094C22.8203 17.9602 22.8278 17.5658 23.0757 17.3266C23.3237 17.09 23.7181 17.0962 23.9573 17.3454C24.1952 17.5921 24.1877 17.9878 23.9397 18.2257C23.6906 18.4648 23.2961 18.4573 23.0582 18.2094ZM21.7597 35.2575C21.0072 35.4803 20.2672 35.3877 19.6749 35.0045C19.5309 34.9106 19.3982 34.8017 19.2792 34.6765C18.3714 33.7348 18.3351 32.0945 19.1903 30.7823C19.6762 30.0322 20.3774 29.4951 21.165 29.2622C21.9175 29.0393 22.6563 29.1307 23.2485 29.5138C23.3925 29.609 23.5253 29.7192 23.6442 29.8444C24.552 30.786 24.5871 32.4251 23.7331 33.7398C23.246 34.4861 22.5448 35.0271 21.7597 35.2575Z" fill="#F6F3E3"/>
<path d="M41.78 6.8C39.9667 6.8 39.06 8.30667 39.06 11.32C39.06 14.3333 39.98 15.84 41.82 15.84C42.5133 15.84 43.08 15.5867 43.52 15.08C43.9733 14.5733 44.2867 13.92 44.46 13.12L44.82 13.16C44.62 14.1333 44.22 14.92 43.62 15.52C43.02 16.1067 42.26 16.4 41.34 16.4C39.9667 16.4 38.92 15.94 38.2 15.02C37.48 14.0867 37.12 12.8667 37.12 11.36C37.12 9.85334 37.48 8.65334 38.2 7.76C38.9333 6.85334 40.02 6.4 41.46 6.4C42.38 6.4 43.1267 6.6 43.7 7C44.2733 7.4 44.56 8.00667 44.56 8.82C44.56 9.22 44.4267 9.56 44.16 9.84C43.9067 10.1067 43.6 10.24 43.24 10.24C42.8933 10.24 42.6067 10.14 42.38 9.94C42.1667 9.72667 42.06 9.47334 42.06 9.18C42.06 8.87334 42.1467 8.62 42.32 8.42C42.4933 8.20667 42.7267 8.1 43.02 8.1C43.4733 8.1 43.74 8.27334 43.82 8.62C43.8333 8.74 43.8933 8.8 44 8.8C44.12 8.8 44.18 8.74 44.18 8.62C44.18 8.16667 43.9733 7.75334 43.56 7.38C43.16 6.99334 42.5667 6.8 41.78 6.8Z" fill="#F6F3E3"/>
<path d="M50.3997 15.7V16H45.9797V15.7H47.2997V2.5H45.8797V2.2H46.2997C47.353 2.2 48.293 2.11334 49.1197 1.94V8.54H49.2397C49.4663 7.9 49.8463 7.38667 50.3797 7C50.9264 6.6 51.533 6.4 52.1997 6.4C53.3597 6.4 54.153 6.74667 54.5797 7.44C55.0063 8.12 55.2197 9.14 55.2197 10.5V15.7H56.5397V16H52.1197V15.7H53.4397V10.78C53.4397 9.27334 53.3263 8.28 53.0997 7.8C52.993 7.58667 52.8263 7.39334 52.5997 7.22C52.3863 7.04667 52.0663 6.96 51.6397 6.96C51.213 6.96 50.8063 7.11334 50.4197 7.42C50.0463 7.72667 49.7663 8.14667 49.5797 8.68C49.2464 9.62667 49.0797 10.76 49.0797 12.08V15.7H50.3997Z" fill="#F6F3E3"/>
<path d="M60.8775 15.7H62.1975V16H57.7775V15.7H59.0975V7.1H57.6775V6.8H58.0975C59.1375 6.8 60.0642 6.71334 60.8775 6.54V15.7ZM59.0775 4.62C58.8642 4.39334 58.7575 4.11334 58.7575 3.78C58.7575 3.44667 58.8642 3.16667 59.0775 2.94C59.3042 2.71334 59.5842 2.6 59.9175 2.6C60.2508 2.6 60.5308 2.71334 60.7575 2.94C60.9842 3.16667 61.0975 3.44667 61.0975 3.78C61.0975 4.11334 60.9842 4.39334 60.7575 4.62C60.5308 4.83334 60.2508 4.94 59.9175 4.94C59.5842 4.94 59.3042 4.83334 59.0775 4.62Z" fill="#F6F3E3"/>
<path d="M67.9955 10.76L66.7155 10.98V15.7H68.0355V16H63.6155V15.7H64.9355V2.5H63.5155V2.2H63.9355C64.9755 2.2 65.9021 2.11334 66.7155 1.94V10.64C69.3555 10.2933 70.6755 9.44 70.6755 8.08C70.6755 7.68 70.5688 7.36 70.3555 7.12C70.1555 6.88 69.9021 6.76 69.5955 6.76C69.4621 6.76 69.3955 6.81334 69.3955 6.92C69.3955 7.02667 69.4555 7.09334 69.5755 7.12C69.9221 7.2 70.0955 7.46 70.0955 7.9C70.0955 8.18 69.9888 8.41334 69.7755 8.6C69.5755 8.77334 69.3221 8.86 69.0155 8.86C68.7221 8.86 68.4688 8.75333 68.2555 8.54C68.0555 8.31334 67.9555 8.02667 67.9555 7.68C67.9555 7.33334 68.0888 7.03334 68.3555 6.78C68.6355 6.52667 69.0021 6.4 69.4555 6.4C69.9088 6.4 70.2821 6.55334 70.5755 6.86C70.8688 7.15334 71.0155 7.56 71.0155 8.08C71.0155 9.18667 70.3221 9.98667 68.9355 10.48V10.52C69.9755 10.5733 70.6555 10.8467 70.9755 11.34C71.2955 11.8333 71.4555 12.64 71.4555 13.76V14.52C71.4555 15.0267 71.4955 15.3933 71.5755 15.62C71.6688 15.8333 71.8355 15.94 72.0755 15.94C72.1688 15.94 72.2888 15.92 72.4355 15.88L72.4755 16.12C72.1288 16.2133 71.7688 16.26 71.3955 16.26C70.2488 16.26 69.6755 15.6 69.6755 14.28V13.2C69.6755 11.5733 69.1555 10.76 68.1155 10.76H67.9955Z" fill="#F6F3E3"/>
<path d="M41.78 26.8C39.9667 26.8 39.06 28.3067 39.06 31.32C39.06 34.3333 39.98 35.84 41.82 35.84C42.5133 35.84 43.08 35.5867 43.52 35.08C43.9733 34.5733 44.2867 33.92 44.46 33.12L44.82 33.16C44.62 34.1333 44.22 34.92 43.62 35.52C43.02 36.1067 42.26 36.4 41.34 36.4C39.9667 36.4 38.92 35.94 38.2 35.02C37.48 34.0867 37.12 32.8667 37.12 31.36C37.12 29.8533 37.48 28.6533 38.2 27.76C38.9333 26.8533 40.02 26.4 41.46 26.4C42.38 26.4 43.1267 26.6 43.7 27C44.2733 27.4 44.56 28.0067 44.56 28.82C44.56 29.22 44.4267 29.56 44.16 29.84C43.9067 30.1067 43.6 30.24 43.24 30.24C42.8933 30.24 42.6067 30.14 42.38 29.94C42.1667 29.7267 42.06 29.4733 42.06 29.18C42.06 28.8733 42.1467 28.62 42.32 28.42C42.4933 28.2067 42.7267 28.1 43.02 28.1C43.4733 28.1 43.74 28.2733 43.82 28.62C43.8333 28.74 43.8933 28.8 44 28.8C44.12 28.8 44.18 28.74 44.18 28.62C44.18 28.1667 43.9733 27.7533 43.56 27.38C43.16 26.9933 42.5667 26.8 41.78 26.8Z" fill="#F6F3E3"/>
<path d="M50.3997 35.7V36H45.9797V35.7H47.2997V22.5H45.8797V22.2H46.2997C47.353 22.2 48.293 22.1133 49.1197 21.94V28.54H49.2397C49.4663 27.9 49.8463 27.3867 50.3797 27C50.9264 26.6 51.533 26.4 52.1997 26.4C53.3597 26.4 54.153 26.7467 54.5797 27.44C55.0063 28.12 55.2197 29.14 55.2197 30.5V35.7H56.5397V36H52.1197V35.7H53.4397V30.78C53.4397 29.2733 53.3263 28.28 53.0997 27.8C52.993 27.5867 52.8263 27.3933 52.5997 27.22C52.3863 27.0467 52.0663 26.96 51.6397 26.96C51.213 26.96 50.8063 27.1133 50.4197 27.42C50.0463 27.7267 49.7663 28.1467 49.5797 28.68C49.2464 29.6267 49.0797 30.76 49.0797 32.08V35.7H50.3997Z" fill="#F6F3E3"/>
<path d="M60.8775 35.7H62.1975V36H57.7775V35.7H59.0975V27.1H57.6775V26.8H58.0975C59.1375 26.8 60.0642 26.7133 60.8775 26.54V35.7ZM59.0775 24.62C58.8642 24.3933 58.7575 24.1133 58.7575 23.78C58.7575 23.4467 58.8642 23.1667 59.0775 22.94C59.3042 22.7133 59.5842 22.6 59.9175 22.6C60.2508 22.6 60.5308 22.7133 60.7575 22.94C60.9842 23.1667 61.0975 23.4467 61.0975 23.78C61.0975 24.1133 60.9842 24.3933 60.7575 24.62C60.5308 24.8333 60.2508 24.94 59.9175 24.94C59.5842 24.94 59.3042 24.8333 59.0775 24.62Z" fill="#F6F3E3"/>
<path d="M67.9955 30.76L66.7155 30.98V35.7H68.0355V36H63.6155V35.7H64.9355V22.5H63.5155V22.2H63.9355C64.9755 22.2 65.9021 22.1133 66.7155 21.94V30.64C69.3555 30.2933 70.6755 29.44 70.6755 28.08C70.6755 27.68 70.5688 27.36 70.3555 27.12C70.1555 26.88 69.9021 26.76 69.5955 26.76C69.4621 26.76 69.3955 26.8133 69.3955 26.92C69.3955 27.0267 69.4555 27.0933 69.5755 27.12C69.9221 27.2 70.0955 27.46 70.0955 27.9C70.0955 28.18 69.9888 28.4133 69.7755 28.6C69.5755 28.7733 69.3221 28.86 69.0155 28.86C68.7221 28.86 68.4688 28.7533 68.2555 28.54C68.0555 28.3133 67.9555 28.0267 67.9555 27.68C67.9555 27.3333 68.0888 27.0333 68.3555 26.78C68.6355 26.5267 69.0021 26.4 69.4555 26.4C69.9088 26.4 70.2821 26.5533 70.5755 26.86C70.8688 27.1533 71.0155 27.56 71.0155 28.08C71.0155 29.1867 70.3221 29.9867 68.9355 30.48V30.52C69.9755 30.5733 70.6555 30.8467 70.9755 31.34C71.2955 31.8333 71.4555 32.64 71.4555 33.76V34.52C71.4555 35.0267 71.4955 35.3933 71.5755 35.62C71.6688 35.8333 71.8355 35.94 72.0755 35.94C72.1688 35.94 72.2888 35.92 72.4355 35.88L72.4755 36.12C72.1288 36.2133 71.7688 36.26 71.3955 36.26C70.2488 36.26 69.6755 35.6 69.6755 34.28V33.2C69.6755 31.5733 69.1555 30.76 68.1155 30.76H67.9955Z" fill="#F6F3E3"/>
<rect x="4.5" y="0.5" width="69" height="39" stroke="black" shape-rendering="crispEdges"/>
<rect x="4.5" y="0.5" width="69" height="39" stroke="black" stroke-opacity="0.2" shape-rendering="crispEdges"/>
</g>
<defs>
<filter id="filter0_d_5_22" x="0" y="0" width="78" height="48" filterUnits="userSpaceOnUse" color-interpolation-filters="sRGB">
<feFlood flood-opacity="0" result="BackgroundImageFix"/>
<feColorMatrix in="SourceAlpha" type="matrix" values="0 0 0 0 0 0 0 0 0 0 0 0 0 0 0 0 0 0 127 0" result="hardAlpha"/>
<feOffset dy="4"/>
<feGaussianBlur stdDeviation="2"/>
<feComposite in2="hardAlpha" operator="out"/>
<feColorMatrix type="matrix" values="0 0 0 0 0 0 0 0 0 0 0 0 0 0 0 0 0 0 0.25 0"/>
<feBlend mode="normal" in2="BackgroundImageFix" result="effect1_dropShadow_5_22"/>
<feBlend mode="normal" in="SourceGraphic" in2="effect1_dropShadow_5_22" result="shape"/>
</filter>
</defs>
</svg>
